<svg id="Layer_2" fill="white" xmlns="http://www.w3.org/2000/svg" viewBox="0 0 392 392">
    <defs>
        <style>.cls-1{fill:#FFF;}</style>
    </defs>
    <title>color_wheel</title>
    <path class="cls-1"
          d="M451.94,251c0-.36,0-.72,0-1.08q-.06-2-.15-3.93c0-.29,0-.57-.05-.86-.08-1.39-.16-2.78-.27-4.16l0-.42A195.32,195.32,0,0,0,397.91,120.8c-.93-1-1.87-1.93-2.82-2.89l-1-1c-1-1-1.92-1.89-2.89-2.82A195.32,195.32,0,0,0,271.45,60.6l-.42,0c-1.38-.11-2.77-.19-4.16-.27l-.86,0q-2-.09-3.93-.15l-1.08,0c-1.66,0-3.33-.06-5-.06s-3.34,0-5,.06l-1.08,0q-2,.06-3.93.15l-.86,0c-1.39.08-2.78.16-4.16.27l-.42,0A195.32,195.32,0,0,0,120.8,114.09c-.94.9-1.86,1.81-2.78,2.72-.41.4-.81.8-1.21,1.21-.91.92-1.82,1.84-2.72,2.78A195.32,195.32,0,0,0,60.6,240.55l0,.42c-.11,1.38-.19,2.77-.27,4.16,0,.29,0,.57,0,.86q-.09,2-.15,3.93c0,.36,0,.72,0,1.08,0,1.66-.06,3.33-.06,5s0,3.34.06,5c0,.36,0,.72,0,1.08q.06,2,.15,3.93c0,.29,0,.57,0,.86.08,1.39.16,2.78.27,4.16l0,.42A195.32,195.32,0,0,0,114.09,391.2c.87.9,1.75,1.8,2.63,2.69l1.39,1.39,2.69,2.63A195.32,195.32,0,0,0,240.55,451.4l.42,0c1.38.11,2.77.19,4.16.27l.86.05q2,.09,3.93.15l1.08,0c1.66,0,3.33.06,5,.06s3.34,0,5-.06l1.08,0q2-.06,3.93-.15l.86-.05c1.39-.08,2.78-.16,4.16-.27l.42,0A195.32,195.32,0,0,0,391.2,397.91c.94-.9,1.86-1.81,2.78-2.72l1.21-1.21c.91-.92,1.82-1.84,2.72-2.78A195.32,195.32,0,0,0,451.4,271.45l0-.42c.11-1.38.19-2.77.27-4.16,0-.29,0-.57.05-.86q.09-2,.15-3.93c0-.36,0-.72,0-1.08,0-1.66.06-3.33.06-5S452,252.66,451.94,251ZM330.12,104.65a168.4,168.4,0,0,1,64.55,55.64l-76,43.87a81.24,81.24,0,0,0-49.14-28.37V88.05A167.48,167.48,0,0,1,330.12,104.65ZM256,309.92a53.85,53.85,0,1,1,53.85-53.85A53.85,53.85,0,0,1,256,309.92ZM162,116.14a169.56,169.56,0,0,1,19.89-11.49,167.48,167.48,0,0,1,60.57-16.6v87.74a81.24,81.24,0,0,0-49.14,28.37l-76-43.87A169.4,169.4,0,0,1,162,116.14ZM87.5,256c0-3.86.14-7.69.4-11.48a167.31,167.31,0,0,1,15.85-60.77l76,43.87a81.66,81.66,0,0,0,0,56.76l-76,43.87A167.31,167.31,0,0,1,87.9,267.48C87.64,263.69,87.5,259.86,87.5,256Zm94.38,151.35a168.4,168.4,0,0,1-64.55-55.64l76-43.87a81.24,81.24,0,0,0,49.14,28.37V424A167.48,167.48,0,0,1,181.88,407.35ZM350,395.86a169.56,169.56,0,0,1-19.89,11.49A167.48,167.48,0,0,1,269.55,424V336.21a81.24,81.24,0,0,0,49.14-28.37l76,43.87A169.56,169.56,0,0,1,350,395.86ZM424.1,267.48a167.31,167.31,0,0,1-15.85,60.77l-76-43.87a81.66,81.66,0,0,0,0-56.76l76-43.87a167.31,167.31,0,0,1,15.85,60.77c.26,3.79.4,7.62.4,11.48S424.36,263.69,424.1,267.48Z"
          transform="translate(-60 -60)"/>
</svg>