<svg id="Layer_2" data-name="Layer 2" xmlns="http://www.w3.org/2000/svg" viewBox="0 0 16.75 15.05">
    <defs>
        <style>.cls-1{fill:#fff;fill-rule:evenodd;}</style>
    </defs>
    <title>wrap_text</title>
    <path class="cls-1"
          d="M10.5,15.17a.32.32,0,0,1-.26-.11L8.45,13.27a.37.37,0,0,1,0-.53L10.24,11a.34.34,0,0,1,.26-.12.37.37,0,0,1,.37.38v.92h2.38a2.13,2.13,0,0,0,2.09-2.49,2.19,2.19,0,0,0-2.21-1.76H1A.88.88,0,1,1,1,6.13H12.83a4,4,0,0,1,4,3.49A3.89,3.89,0,0,1,13,13.88H10.87v.92A.37.37,0,0,1,10.5,15.17ZM1,13.88a.88.88,0,1,1,0-1.75H5a.88.88,0,0,1,0,1.75Zm0-12A.89.89,0,0,1,.12,1,.88.88,0,0,1,1,.13H15a.88.88,0,0,1,0,1.75Z"
          transform="translate(-0.12 -0.13)"/>
</svg>