<svg id="Capa_1" data-name="Capa 1" xmlns="http://www.w3.org/2000/svg" viewBox="0 0 423 516">
    <defs>
        <style>.cls-1{stroke:#000;stroke-miterlimit:10;stroke-width:4px;}</style>
    </defs>
    <title>document_json</title>
    <path class="cls-1"
          d="M421,467a15,15,0,0,1-15,15H106a15,15,0,0,1-15-15V428H61v39a45.05,45.05,0,0,0,45,45H406a45.05,45.05,0,0,0,45-45V428H421Z"
          transform="translate(-44.5 2)"/>
    <path class="cls-1"
          d="M91,45a15,15,0,0,1,15-15H301v75a45.05,45.05,0,0,0,45,45h75V260h30V135a15.18,15.18,0,0,0-4.39-10.61l-120-120A15,15,0,0,0,316,0H106A45.05,45.05,0,0,0,61,45V260H91Zm240,6.21L399.79,120H346a15,15,0,0,1-15-15Z"
          transform="translate(-44.5 2)"/>
    <path
        d="M300.5,320.6c-6.9,0-12,2.2-15.4,6.5s-5,10-5,17.1c0,7.7,1.8,13.5,5.3,17.6s8.4,6.1,14.5,6.1c13.5,0,20.2-8,20.2-24q0-10.8-4.8-17.1C312.1,322.7,307.1,320.6,300.5,320.6Z"
        transform="translate(-44.5 2)"/>
    <path
        d="M455.5,269.4H56.5a12,12,0,0,0-12,12V404.3a12,12,0,0,0,12,12h399a12,12,0,0,0,12-12V281.4A12,12,0,0,0,455.5,269.4ZM92.7,379.5H71V361.2H92.7Zm50.5-1.1c0,17.6-10.2,26.4-30.5,26.4a79.93,79.93,0,0,1-10.3-.8V390.5c2.5.2,4.7.3,6.4.3,5.6,0,9.3-.8,11.3-2.5s3-5,3-9.9V309h20v69.4Zm0-77.7h-20V284.2h20Zm85.9,74.5c-7.6,3.8-16.7,5.8-27.2,5.8a62.41,62.41,0,0,1-24.1-4.4c-7-2.9-11.5-7.3-13.6-13.3l18.8-2.9c2.9,5.7,9.2,8.6,19,8.6q18.6,0,18.6-8.7c0-1.9-1-3.4-2.9-4.6a17.62,17.62,0,0,0-6.9-2.4l-16.2-2.4c-17.9-2.7-26.9-9.7-26.9-20.9,0-6.2,2.8-11.5,8.5-15.9s14.1-6.5,25.4-6.5c18.7,0,30.2,5.5,34.4,16.4l-17.8,2.9c-1.9-5.3-7.2-8-16-8-10.7,0-16,2.7-16,8,0,3.7,4.3,6.2,12.9,7.6l19.1,3.1c14.8,2.4,22.2,9.2,22.2,20.3C240.5,365.6,236.7,371.4,229.1,375.2Zm100.3-4.4c-7.9,6.8-18,10.2-30.2,10.2-13.1,0-23.1-3.7-30.1-11.2s-10.4-16.1-10.4-25.8a33.44,33.44,0,0,1,11.5-26c7.6-6.9,17.7-10.4,30.3-10.4,11.9,0,21.7,3.4,29.3,10.1s11.5,15.5,11.5,26.3C341.3,355.1,337.3,364,329.4,370.8Zm111.5,8.7h-20V335.4c0-4.7-1.3-8.2-4-10.5a14,14,0,0,0-9.8-3.5,19.61,19.61,0,0,0-13.7,5.4c-3.9,3.6-5.9,9.1-5.9,16.4v36.3h-20V309h18.3v16.3c6.4-11.9,15.3-17.8,26.9-17.8,7.8,0,14.5,2,20,5.9S441,324.2,441,334v45.5Z"
        transform="translate(-44.5 2)"/>
</svg>